<svg xmlns="http://www.w3.org/2000/svg" viewBox="0 0 649.47 278.1"><defs><style>.cls-1{fill:#ebebeb;}.cls-2{fill:none;}.cls-3{fill:#bbb;}</style></defs><title>자산 1</title><g id="레이어_2" data-name="레이어 2"><g id="레이어_1-2" data-name="레이어 1"><path class="cls-1" d="M271,118.92a61.9,61.9,0,0,1,12.75-1.27c7.78,0,12.68,1.6,16.06,5a12.58,12.58,0,0,1,3.55,9.38c0,5.66-4.31,10.73-10.06,12.68v.25c4.14.84,12.42,4.65,12.42,14.28A14.55,14.55,0,0,1,301.4,170c-4,4-10.47,5.66-19.68,5.66-4.4,0-8.2-.34-10.73-.51Zm4.14,24.41h10c8.95,0,14-5,14-11.15,0-8.7-7.18-11.07-15.63-11.07a37.23,37.23,0,0,0-8.36.68Zm0,28.31a41.67,41.67,0,0,0,8,.5c9,0,18.25-2.61,18.25-12.75,0-9-8.11-12.68-17.74-12.68h-8.53Z"/><path class="cls-1" d="M317.28,147.64c0-4.39-.08-8.7-.34-13.09h3.81l.17,8.78h.25c2-5.66,6.42-9.8,12.42-9.8a7.16,7.16,0,0,1,1.94.26v3.8a10.28,10.28,0,0,0-2.36-.17c-5.66,0-10,4.73-11.33,11.74a20.05,20.05,0,0,0-.42,4v22h-4.14Z"/><path class="cls-1" d="M368.9,175.1l-.67-6.25h-.17a18,18,0,0,1-14.7,7.27c-9.21,0-12.93-6.26-12.93-11.16,0-9.21,8.53-15.21,27.46-15v-.93c0-3-.68-12.17-11.49-12.08a20.39,20.39,0,0,0-11.66,3.38l-1.35-3a24.45,24.45,0,0,1,13.35-3.89c13.77,0,15.29,10.65,15.29,17.07v14.7a63.23,63.23,0,0,0,.68,9.8Zm-1-21.63c-10.73-.34-23.07,1.35-23.07,10.73,0,5.75,4.14,8.54,8.88,8.54,7.85,0,12.08-4.65,13.68-8.28a6.62,6.62,0,0,0,.51-2.37Z"/><path class="cls-1" d="M384.53,169.61a19.72,19.72,0,0,0,10.14,3c7.1,0,10.22-3.72,10.22-7.86,0-4.73-3.21-7-9.55-9-7.35-2.36-11-6.16-11-11,0-5.74,4.56-11.24,13.35-11.24a17.65,17.65,0,0,1,9.8,2.71l-1.6,3.38a15.51,15.51,0,0,0-9-2.62c-5.58,0-8.53,3.38-8.53,7.26,0,4.57,3.46,6.34,9.46,8.37,7.43,2.53,11.07,5.74,11.07,11.83,0,6.59-5.41,11.66-14.62,11.66a22.77,22.77,0,0,1-11.32-3Z"/><path class="cls-1" d="M419,169.61a19.72,19.72,0,0,0,10.14,3c7.09,0,10.22-3.72,10.22-7.86,0-4.73-3.21-7-9.55-9-7.35-2.36-11-6.16-11-11,0-5.74,4.56-11.24,13.35-11.24a17.68,17.68,0,0,1,9.8,2.71l-1.61,3.38a15.47,15.47,0,0,0-8.95-2.62c-5.58,0-8.54,3.38-8.54,7.26,0,4.57,3.47,6.34,9.47,8.37,7.43,2.53,11.07,5.74,11.07,11.83,0,6.59-5.41,11.66-14.62,11.66a22.77,22.77,0,0,1-11.32-3Z"/><path class="cls-1" d="M455.16,144.35c0-3.3-.09-6.51-.34-9.8h3.89l.33,7.85h.17c3-5.06,7.18-8.87,14.62-8.87,6.42,0,11,4.48,12.76,9.64h.16A18.17,18.17,0,0,1,491,137.5a15.41,15.41,0,0,1,11.07-4c3.8,0,14.53,2,14.53,18.93V175.1h-4.14V152.54c0-10.22-4.39-15.46-11.83-15.46-5.66,0-10.05,4.06-11.83,8.2a11.08,11.08,0,0,0-.84,4V175.1H483.8V150.43c0-7.94-4.31-13.35-11.15-13.35-6.17,0-10.82,4.9-12.59,9.38a11.31,11.31,0,0,0-.76,4V175.1h-4.14Z"/><path class="cls-1" d="M569.8,154.32c0,15.21-11.83,21.8-21.8,21.8-12.08,0-20.86-8.88-20.86-20.87,0-13.52,10.13-21.72,21.46-21.72C561.61,133.53,569.8,142.74,569.8,154.32Zm-38.52.67c0,11.32,8.19,17.75,17,17.75,9,0,17.4-6.51,17.4-18.17,0-7.69-5.15-17.66-17.06-17.66C537.11,136.91,531.28,145.53,531.28,155Z"/><path class="cls-1" d="M580.87,144.35c0-3.3-.09-6.51-.34-9.8h3.89l.33,8.11h.17a17.22,17.22,0,0,1,15.63-9.13c3.72,0,15.8,1.69,15.8,18.51V175.1h-4.14V152c0-7.95-3.46-15-12.76-15a15,15,0,0,0-13.77,9.63,11.57,11.57,0,0,0-.67,3.64V175.1h-4.14Z"/><path class="cls-1" d="M636.63,122.47v12.08h12.84v3.29H636.63v25.94c0,5,1.52,8.79,6.5,8.79a15.83,15.83,0,0,0,5.32-.76L649,175a16.64,16.64,0,0,1-6.25,1.1c-3.21,0-5.83-1-7.52-3.05-2-2.28-2.7-6-2.7-9.8V137.84h-7.44v-3.29h7.44V123.73Z"/><polygon class="cls-2" points="90.61 127.36 90.61 159.39 90.61 191.42 118.24 175.4 145.87 159.39 118.24 143.38 90.61 127.36"/><path class="cls-1" d="M211.36,114.58c-5.65-12.9-22.94-61.52-7.8-114.56l-.23,0a7.42,7.42,0,0,0-4.42,1.62V1.48l-.7.7a16.19,16.19,0,0,0-1.55,1.55l-44.9,45.09H110.5C49.47,48.82,0,98.49,0,159.76a110.94,110.94,0,0,0,44.2,88.76H37.57l1.34,5a23.71,23.71,0,0,1,0,12.12l-1.34,5h73.67C171.93,270.29,221,220.78,221,159.76a110.83,110.83,0,0,0-9.62-45.24ZM118.24,175.4l-27.63,16V127.36l27.63,16,27.62,16Z"/><path class="cls-3" d="M212,113.35c-.22.34-.44.68-.66,1a1.22,1.22,0,0,1,.07.17c6.21-9.92,11.09-31.31,11.09-54.61C222.48,27.07,214,.42,203.56,0,188.42,53.06,206.33,100.45,212,113.35Z"/><path class="cls-3" d="M211.36,114.58l0-.06a1.22,1.22,0,0,0-.07-.17c.22-.32.44-.66.66-1-5.65-12.9-23.56-60.29-8.42-113.33C188.42,53.06,205.71,101.68,211.36,114.58Z"/><ellipse class="cls-1" cx="26.52" cy="259.61" rx="11.05" ry="18.49"/></g></g></svg>